<svg width="362" height="547" viewBox="0 0 362 547" fill="none" xmlns="http://www.w3.org/2000/svg">
<mask id="mask0" mask-type="alpha" maskUnits="userSpaceOnUse" x="-165" y="103" width="698" height="522">
<path d="M363.389 124.907L532.883 624.521L-164.913 618.739L0.78154 103.339L190.847 128.951L363.389 124.907Z" fill="#C4C4C4"/>
</mask>
<g mask="url(#mask0)">
<mask id="mask1" mask-type="alpha" maskUnits="userSpaceOnUse" x="28" y="43" width="306" height="457">
<rect x="28.7192" y="43.9675" width="304.554" height="454.759" fill="#C4C4C4" stroke="white"/>
</mask>
<g mask="url(#mask1)">
<path d="M87.6365 485.175C85.7645 485.175 84.0845 484.875 82.5965 484.275C81.1325 483.651 80.0045 482.847 79.2125 481.863L79.5725 476.967H80.4005C80.6165 477.567 80.8325 479.043 81.0485 481.395C81.6725 482.139 82.4765 482.739 83.4605 483.195C84.4445 483.627 85.5605 483.843 86.8085 483.843C88.5125 483.843 89.9645 483.399 91.1645 482.511C92.3645 481.599 92.9645 480.327 92.9645 478.695C92.9645 477.615 92.6765 476.703 92.1005 475.959C91.5245 475.191 90.8165 474.567 89.9765 474.087C89.1365 473.607 88.0085 473.055 86.5925 472.431C85.0565 471.759 83.8325 471.159 82.9205 470.631C82.0085 470.103 81.2285 469.407 80.5805 468.543C79.9565 467.655 79.6445 466.563 79.6445 465.267C79.6445 463.299 80.4005 461.811 81.9125 460.803C83.4245 459.771 85.4645 459.255 88.0325 459.255C91.3205 459.255 93.7925 460.119 95.4485 461.847L95.0885 466.059H94.2605C93.9485 465.171 93.7205 463.875 93.5765 462.171C93.0245 461.667 92.3405 461.283 91.5245 461.019C90.7325 460.731 89.8445 460.587 88.8605 460.587C86.9405 460.587 85.4885 460.947 84.5045 461.667C83.5205 462.387 83.0285 463.431 83.0285 464.799C83.0285 465.591 83.2685 466.287 83.7485 466.887C84.2525 467.463 84.8645 467.967 85.5845 468.399C86.3285 468.807 87.3365 469.287 88.6085 469.839C90.2645 470.559 91.5965 471.231 92.6045 471.855C93.6365 472.455 94.5125 473.283 95.2325 474.339C95.9765 475.371 96.3485 476.655 96.3485 478.191C96.3485 479.607 95.9645 480.843 95.1965 481.899C94.4525 482.955 93.4205 483.771 92.1005 484.347C90.7805 484.899 89.2925 485.175 87.6365 485.175ZM113.374 484.383C114.19 484.167 115.21 483.951 116.434 483.735V460.947H109.774C109.726 461.499 109.594 462.279 109.378 463.287C109.186 464.271 108.994 464.931 108.802 465.267H108.046V459.615H128.134V465.267H127.378C127.186 464.931 126.982 464.271 126.766 463.287C126.574 462.279 126.454 461.499 126.406 460.947H119.746V483.735C120.922 483.927 121.942 484.155 122.806 484.419V484.815H113.374V484.383ZM152.566 485.175C146.11 485.175 142.882 482.499 142.882 477.147V460.731C141.778 460.563 140.806 460.335 139.966 460.047V459.615H149.11V460.083C148.27 460.371 147.298 460.587 146.194 460.731V477.507C146.194 481.731 148.594 483.843 153.394 483.843C155.506 483.843 157.198 483.351 158.47 482.367C159.766 481.359 160.414 479.739 160.414 477.507V460.695C159.43 460.599 158.446 460.383 157.462 460.047V459.615H164.95V460.047C163.846 460.407 162.862 460.647 161.998 460.767V477.147C161.998 482.499 158.854 485.175 152.566 485.175ZM176.741 484.383C177.677 484.047 178.625 483.831 179.585 483.735V460.731C178.673 460.587 177.725 460.359 176.741 460.047V459.615H187.541C191.189 459.615 193.841 460.683 195.497 462.819C197.177 464.931 198.017 468.063 198.017 472.215C198.017 476.343 197.177 479.475 195.497 481.611C193.817 483.747 191.153 484.815 187.505 484.815H176.741V484.383ZM187.433 483.555C190.049 483.555 191.897 482.583 192.977 480.639C194.081 478.671 194.633 475.863 194.633 472.215C194.633 468.591 194.081 465.807 192.977 463.863C191.897 461.919 190.073 460.947 187.505 460.947H182.897V483.555H187.433ZM209.931 484.383C210.963 484.071 211.935 483.855 212.847 483.735V460.731C211.839 460.587 210.867 460.359 209.931 460.047V459.615H219.111V460.083C218.295 460.347 217.311 460.563 216.159 460.731V483.735C217.143 483.879 218.127 484.107 219.111 484.419V484.815H209.931V484.383ZM242.505 485.175C238.785 485.175 235.929 484.035 233.937 481.755C231.969 479.475 230.985 476.295 230.985 472.215C230.985 468.159 231.969 464.991 233.937 462.711C235.929 460.407 238.785 459.255 242.505 459.255C246.201 459.255 249.045 460.407 251.037 462.711C253.053 464.991 254.061 468.159 254.061 472.215C254.061 476.271 253.053 479.451 251.037 481.755C249.045 484.035 246.201 485.175 242.505 485.175ZM242.505 483.843C245.193 483.843 247.233 482.787 248.625 480.675C250.017 478.539 250.713 475.719 250.713 472.215C250.713 468.711 250.017 465.903 248.625 463.791C247.233 461.655 245.193 460.587 242.505 460.587C239.817 460.587 237.777 461.655 236.385 463.791C235.017 465.903 234.333 468.711 234.333 472.215C234.333 475.743 235.017 478.563 236.385 480.675C237.777 482.787 239.817 483.843 242.505 483.843ZM274.035 485.175C272.163 485.175 270.483 484.875 268.995 484.275C267.531 483.651 266.403 482.847 265.611 481.863L265.971 476.967H266.799C267.015 477.567 267.231 479.043 267.447 481.395C268.071 482.139 268.875 482.739 269.859 483.195C270.843 483.627 271.959 483.843 273.207 483.843C274.911 483.843 276.363 483.399 277.563 482.511C278.763 481.599 279.363 480.327 279.363 478.695C279.363 477.615 279.075 476.703 278.499 475.959C277.923 475.191 277.215 474.567 276.375 474.087C275.535 473.607 274.407 473.055 272.991 472.431C271.455 471.759 270.231 471.159 269.319 470.631C268.407 470.103 267.627 469.407 266.979 468.543C266.355 467.655 266.043 466.563 266.043 465.267C266.043 463.299 266.799 461.811 268.311 460.803C269.823 459.771 271.863 459.255 274.431 459.255C277.719 459.255 280.191 460.119 281.847 461.847L281.487 466.059H280.659C280.347 465.171 280.119 463.875 279.975 462.171C279.423 461.667 278.739 461.283 277.923 461.019C277.131 460.731 276.243 460.587 275.259 460.587C273.339 460.587 271.887 460.947 270.903 461.667C269.919 462.387 269.427 463.431 269.427 464.799C269.427 465.591 269.667 466.287 270.147 466.887C270.651 467.463 271.263 467.967 271.983 468.399C272.727 468.807 273.735 469.287 275.007 469.839C276.663 470.559 277.995 471.231 279.003 471.855C280.035 472.455 280.911 473.283 281.631 474.339C282.375 475.371 282.747 476.655 282.747 478.191C282.747 479.607 282.363 480.843 281.595 481.899C280.851 482.955 279.819 483.771 278.499 484.347C277.179 484.899 275.691 485.175 274.035 485.175Z" fill="white"/>
<path d="M255.172 193.84L225.147 164.304L191.181 142.648L131.99 192.24L72.7989 228.235L13.6077 264.23L-5.91431 -25.8367L355.521 -5.4478L351.157 244.636L255.172 193.84Z" fill="white" stroke="white" stroke-width="11"/>
<path d="M99.0388 434.639H91.9628V353.021L89.2788 351.557V348.019H108.311C111.401 348.019 113.963 348.629 115.997 349.849C118.111 350.988 119.209 352.37 119.291 353.997L118.071 387.791C118.071 389.011 117.501 390.516 116.363 392.305C115.305 394.013 113.313 395.274 110.385 396.087L117.583 409.507L120.145 434.639L111.239 435.005L109.287 411.093L102.577 396.697H99.0388V434.639ZM100.747 387.913C100.747 388.157 100.869 388.401 101.113 388.645C101.438 388.808 101.804 388.889 102.211 388.889H108.677C109.165 388.889 109.409 388.645 109.409 388.157L110.141 357.291C110.141 356.152 109.612 355.217 108.555 354.485C107.579 353.672 105.464 353.265 102.211 353.265C101.235 353.59 100.747 354.078 100.747 354.729V387.913ZM136.168 348.019H152.638L157.518 351.435V430.247L149.832 434.639H138.12L130.922 429.515V351.923L136.168 348.019ZM149.344 355.461C149.344 354.729 148.978 354.363 148.246 354.363H141.902C141.17 354.363 140.804 354.729 140.804 355.461V425.367C140.804 425.855 141.17 426.099 141.902 426.099H147.026C147.758 426.099 148.124 425.855 148.124 425.367L149.344 355.461ZM179.766 349.239L177.204 427.075L187.452 426.343V350.825L195.992 351.313V437.079H167.932L170.738 349.239H179.766ZM232.556 434.639H225.358L218.892 393.403L216.208 395.477V434.639H208.034L206.448 349.239L209.62 348.019H214.744V389.255L223.406 381.935L222.064 350.825L232.556 348.019L229.994 385.717L224.992 389.621L234.752 432.077L232.556 434.639ZM271.811 432.199H243.141L245.947 348.019H270.713V357.535H253.267V382.667H266.565V388.767L253.877 390.963V422.073L270.347 419.877L271.811 432.199Z" fill="white"/>
<path d="M88.0335 332.079V243.019H99.0135L105.358 289.135H106.09L111.824 240.579H123.658V329.639H115.606L118.29 248.997H117.802L107.188 307.557H103.528L94.8655 255.219H94.3775V332.079H88.0335ZM138.61 243.019H155.08L159.96 246.435V325.247L152.274 329.639H140.562L133.364 324.515V246.923L138.61 243.019ZM151.786 250.461C151.786 249.729 151.42 249.363 150.688 249.363H144.344C143.612 249.363 143.246 249.729 143.246 250.461V320.367C143.246 320.855 143.612 321.099 144.344 321.099H149.468C150.2 321.099 150.566 320.855 150.566 320.367L151.786 250.461ZM182.208 244.239L179.646 322.075L189.894 321.343V245.825L198.434 246.313V332.079H170.374L173.18 244.239H182.208ZM236.707 332.079H228.411L216.455 262.051H215.967L213.649 332.079H207.427L211.331 243.019H218.773L231.095 313.657H231.949V243.019H239.147L236.707 332.079ZM274.522 249.973H265.738V327.199H255.49V249.119L247.072 247.655L248.292 243.019H274.522V249.973Z" fill="white"/>
</g>
</g>
<mask id="mask2" mask-type="alpha" maskUnits="userSpaceOnUse" x="194" y="77" width="182" height="48">
<path d="M367.389 120.907L375.477 77.7715L194.847 124.951L367.389 120.907Z" fill="#C4C4C4"/>
</mask>
<g mask="url(#mask2)">
<mask id="mask3" mask-type="alpha" maskUnits="userSpaceOnUse" x="32" y="39" width="306" height="457">
<rect x="32.7192" y="39.9675" width="304.554" height="454.759" fill="#C4C4C4" stroke="white"/>
</mask>
<g mask="url(#mask3)">
<path d="M259.172 189.84L229.147 160.304L195.181 138.648L135.99 188.24L76.7989 224.235L17.6077 260.23L-1.91431 -29.8367L359.521 -9.4478L355.157 240.636L259.172 189.84Z" fill="white" stroke="white" stroke-width="11"/>
</g>
</g>
<mask id="mask4" mask-type="alpha" maskUnits="userSpaceOnUse" x="199" y="-5" width="182" height="125">
<path d="M356.214 -4.06391L380.477 72.7713L199.847 119.951L356.214 -4.06391Z" fill="#C4C4C4"/>
</mask>
<g mask="url(#mask4)">
<mask id="mask5" mask-type="alpha" maskUnits="userSpaceOnUse" x="37" y="34" width="306" height="457">
<rect x="37.7192" y="34.9675" width="304.554" height="454.759" fill="#C4C4C4" stroke="white"/>
</mask>
<g mask="url(#mask5)">
<path d="M264.172 184.84L234.147 155.304L200.181 133.648L140.99 183.24L81.7989 219.235L22.6077 255.23L3.08569 -34.8367L364.521 -14.4478L360.157 235.636L264.172 184.84Z" fill="white" stroke="white" stroke-width="11"/>
</g>
</g>
<mask id="mask6" mask-type="alpha" maskUnits="userSpaceOnUse" x="197" y="-20" width="159" height="131">
<path d="M355.214 -13.0639L197.499 -19.8037L198.847 110.951L355.214 -13.0639Z" fill="#C4C4C4"/>
</mask>
<g mask="url(#mask6)">
<mask id="mask7" mask-type="alpha" maskUnits="userSpaceOnUse" x="36" y="25" width="306" height="457">
<rect x="36.7192" y="25.9675" width="304.554" height="454.759" fill="#C4C4C4" stroke="white"/>
</mask>
<g mask="url(#mask7)">
<path d="M263.172 175.84L233.147 146.304L199.181 124.648L139.99 174.24L80.7989 210.235L21.6077 246.23L2.08569 -43.8367L363.521 -23.4478L359.157 226.636L263.172 175.84Z" fill="white" stroke="white" stroke-width="11"/>
</g>
</g>
<mask id="mask8" mask-type="alpha" maskUnits="userSpaceOnUse" x="137" y="-16" width="57" height="131">
<path d="M137.232 56.9873L192.499 -15.8037L193.848 114.951L137.232 56.9873Z" fill="#C4C4C4"/>
</mask>
<g mask="url(#mask8)">
<mask id="mask9" mask-type="alpha" maskUnits="userSpaceOnUse" x="31" y="29" width="306" height="457">
<rect x="31.7195" y="29.9675" width="304.554" height="454.759" fill="#C4C4C4" stroke="white"/>
</mask>
<g mask="url(#mask9)">
<path d="M258.172 179.84L228.147 150.304L194.181 128.648L134.99 178.24L75.7991 214.235L16.6079 250.23L-2.91406 -39.8367L358.521 -19.4478L354.158 230.636L258.172 179.84Z" fill="white" stroke="white" stroke-width="11"/>
</g>
</g>
<mask id="mask10" mask-type="alpha" maskUnits="userSpaceOnUse" x="-5" y="-12" width="188" height="123">
<path d="M126.232 52.9873L71.6974 -11.6337L-4.52271 4.4599L182.848 110.951L126.232 52.9873Z" fill="#C4C4C4"/>
</mask>
<g mask="url(#mask10)">
<mask id="mask11" mask-type="alpha" maskUnits="userSpaceOnUse" x="20" y="25" width="306" height="457">
<rect x="20.7192" y="25.9673" width="304.554" height="454.759" fill="#C4C4C4" stroke="white"/>
</mask>
<g mask="url(#mask11)">
<path d="M247.172 175.84L217.147 146.303L183.181 124.648L123.99 174.24L64.7989 210.235L5.60767 246.229L-13.9143 -43.8369L347.521 -23.448L343.157 226.636L247.172 175.84Z" fill="white" stroke="white" stroke-width="11"/>
</g>
</g>
<mask id="mask12" mask-type="alpha" maskUnits="userSpaceOnUse" x="-16" y="8" width="193" height="107">
<path d="M78.0918 86.0775L-15.9126 88.8221L-10.5227 8.45972L176.847 114.951L78.0918 86.0775Z" fill="#C4C4C4"/>
</mask>
<g mask="url(#mask12)">
<mask id="mask13" mask-type="alpha" maskUnits="userSpaceOnUse" x="14" y="29" width="306" height="457">
<rect x="14.7192" y="29.967" width="304.554" height="454.759" fill="#C4C4C4" stroke="white"/>
</mask>
<g mask="url(#mask13)">
<path d="M241.172 179.84L211.147 150.303L177.181 128.647L117.99 178.24L58.7989 214.235L-0.392326 250.229L-19.9143 -39.8372L341.521 -19.4483L337.157 230.635L241.172 179.84Z" fill="white" stroke="white" stroke-width="11"/>
</g>
</g>
<mask id="mask14" mask-type="alpha" maskUnits="userSpaceOnUse" x="-11" y="93" width="193" height="29">
<path d="M83.0918 93.0776L-10.9126 95.8223L11.6318 99.0177L181.847 121.951L83.0918 93.0776Z" fill="#C4C4C4"/>
</mask>
<g mask="url(#mask14)">
<mask id="mask15" mask-type="alpha" maskUnits="userSpaceOnUse" x="19" y="36" width="306" height="457">
<rect x="19.7192" y="36.9673" width="304.554" height="454.759" fill="#C4C4C4" stroke="white"/>
</mask>
<g mask="url(#mask15)">
<path d="M246.172 186.84L216.147 157.303L182.181 135.648L122.99 185.24L63.7989 221.235L4.60767 257.229L-14.9143 -32.8369L346.521 -12.448L342.157 237.636L246.172 186.84Z" fill="white" stroke="white" stroke-width="11"/>
</g>
</g>
<mask id="mask16" mask-type="alpha" maskUnits="userSpaceOnUse" x="92" y="-21" width="98" height="73">
<path d="M134.232 51.9874L189.499 -20.8037L92.4444 2.11191L134.232 51.9874Z" fill="#C4C4C4"/>
</mask>
<g mask="url(#mask16)">
<mask id="mask17" mask-type="alpha" maskUnits="userSpaceOnUse" x="28" y="24" width="306" height="457">
<rect x="28.7192" y="24.9675" width="304.554" height="454.759" fill="#C4C4C4" stroke="white"/>
</mask>
<g mask="url(#mask17)">
<path d="M255.172 174.84L225.147 145.304L191.181 123.648L131.99 173.24L72.7989 209.235L13.6077 245.23L-5.91431 -44.8367L355.521 -24.4478L351.157 225.636L255.172 174.84Z" fill="white" stroke="white" stroke-width="11"/>
</g>
</g>
</svg>
